<?xml version="1.0" encoding="UTF-8" standalone="no"?>
<!DOCTYPE svg PUBLIC "-//W3C//DTD SVG 1.1//EN" "http://www.w3.org/Graphics/SVG/1.1/DTD/svg11.dtd">
<svg version="1.1" xmlns="http://www.w3.org/2000/svg" xmlns:xlink="http://www.w3.org/1999/xlink" preserveAspectRatio="xMidYMid meet" viewBox="0 0 60 60" width="60" height="60"><defs><path d="M32.4 0L27.4 0L27.4 20L32.4 20L32.4 0Z" id="c3J6Cb5ot3"></path><path d="M32.4 40L27.4 40L27.4 60L32.4 60L32.4 40Z" id="c7FJgRXHW"></path><path d="M60 32.5L60 27.5L40 27.5L40 32.5L60 32.5Z" id="i19I5qKrSW"></path><path d="M20 32.5L20 27.5L0 27.5L0 32.5L20 32.5Z" id="df5lj5ycu"></path><path d="M52.43 10.55L48.9 7.02L34.75 21.16L38.29 24.7L52.43 10.55Z" id="am9Q7zfTG"></path><path d="M24.15 38.84L20.61 35.3L6.47 49.45L10 52.98L24.15 38.84Z" id="a16Hh0rkBP"></path><path d="M10.98 9.9L7.45 12.56L21.59 23.16L25.13 20.51L10.98 9.9Z" id="cXA7yw4S2"></path><path d="M39.27 38.19L35.73 40.84L49.87 51.45L53.41 48.8L39.27 38.19Z" id="a1sxlgFJEH"></path><path d="M46.23 24.68L45.48 22.88L39.16 25.5L39.91 27.3L46.23 24.68Z" id="b8MyaCqfSE"></path><path d="M60.14 27.14L45.71 23.84L53.58 11.3" id="aqwWTowFH"></path><path d="M14.44 35.74L15.19 37.54L21.51 34.92L20.76 33.12L14.44 35.74Z" id="a19efRht7E"></path><path d="M0.53 33.28L14.96 36.58L7.09 49.12" id="bPdOey5vB"></path><path d="M37.19 14.85L35.39 14.11L32.77 20.42L34.58 21.17L37.19 14.85Z" id="e5E1nyeBl"></path><path d="M48.77 6.75L36.23 14.63L32.93 0.19" id="a2CzPPluMw"></path><path d="M22.53 45.15L24.34 45.89L26.95 39.58L25.15 38.83L22.53 45.15Z" id="c1eB1WDWYK"></path><path d="M10.96 53.25L23.5 45.37L26.79 59.81" id="b82N5kuyF"></path><path d="M45.86 37.05L46.61 35.25L40.29 32.63L39.55 34.44L45.86 37.05Z" id="c4ypy6Wluo"></path><path d="M53.97 48.63L46.09 36.09L60.53 32.79" id="dkySddxNe"></path><path d="M15.57 22.39L14.82 24.2L21.14 26.81L21.89 25.01L15.57 22.39Z" id="a2r1ikccGR"></path><path d="M7.47 10.81L15.35 23.35L0.91 26.65" id="dVZBXIm0s"></path><path d="M35.39 45.89L37.19 45.15L34.58 38.83L32.77 39.58L35.39 45.89Z" id="a2Lyl8W2fe"></path><path d="M32.93 59.81L36.23 45.37L48.77 53.25" id="bkkfuHp4Z"></path><path d="M24.34 14.11L22.53 14.85L25.15 21.17L26.95 20.42L24.34 14.11Z" id="b5Anyk8TB"></path><path d="M26.79 0.19L23.5 14.63L10.96 6.75" id="c320OF22Es"></path><path d="M33.12 19.57L34.93 20.31L26.88 39.75L25.07 39.01L33.12 19.57Z" id="dDto2vbZ9"></path><path d="M39.91 25.16L40.66 26.97L21.22 35.02L20.47 33.22L39.91 25.16Z" id="bjJwVUEi1"></path><path d="M34.72 39.12L32.92 39.87L24.87 20.43L26.67 19.68L34.72 39.12Z" id="aDwYZ6Ltf"></path><path d="M20.37 26.46L21.12 24.66L40.56 32.71L39.81 34.52L20.37 26.46Z" id="c23znnxczi"></path></defs><g><g><g><g><use xlink:href="#c3J6Cb5ot3" opacity="1" fill="#cccccc" fill-opacity="1"></use></g><g><use xlink:href="#c7FJgRXHW" opacity="1" fill="#cccccc" fill-opacity="1"></use></g><g><use xlink:href="#i19I5qKrSW" opacity="1" fill="#cccccc" fill-opacity="1"></use></g><g><use xlink:href="#df5lj5ycu" opacity="1" fill="#cccccc" fill-opacity="1"></use></g><g><use xlink:href="#am9Q7zfTG" opacity="1" fill="#cccccc" fill-opacity="1"></use></g><g><use xlink:href="#a16Hh0rkBP" opacity="1" fill="#cccccc" fill-opacity="1"></use></g><g><use xlink:href="#cXA7yw4S2" opacity="1" fill="#cccccc" fill-opacity="1"></use></g><g><use xlink:href="#a1sxlgFJEH" opacity="1" fill="#cccccc" fill-opacity="1"></use></g></g><g><g><g><g><g><use xlink:href="#b8MyaCqfSE" opacity="1" fill="#000000" fill-opacity="1"></use></g><g><g><use xlink:href="#aqwWTowFH" opacity="1" fill-opacity="0" stroke="#000000" stroke-width="2" stroke-opacity="1"></use></g></g></g><g><g><use xlink:href="#a19efRht7E" opacity="1" fill="#000000" fill-opacity="1"></use></g><g><g><use xlink:href="#bPdOey5vB" opacity="1" fill-opacity="0" stroke="#000000" stroke-width="2" stroke-opacity="1"></use></g></g></g></g><g><g><g><g><use xlink:href="#e5E1nyeBl" opacity="1" fill="#000000" fill-opacity="1"></use></g><g><g><use xlink:href="#a2CzPPluMw" opacity="1" fill-opacity="0" stroke="#000000" stroke-width="2" stroke-opacity="1"></use></g></g></g><g><g><use xlink:href="#c1eB1WDWYK" opacity="1" fill="#000000" fill-opacity="1"></use></g><g><g><use xlink:href="#b82N5kuyF" opacity="1" fill-opacity="0" stroke="#000000" stroke-width="2" stroke-opacity="1"></use></g></g></g></g><g><g><g><g><use xlink:href="#c4ypy6Wluo" opacity="1" fill="#000000" fill-opacity="1"></use></g><g><g><use xlink:href="#dkySddxNe" opacity="1" fill-opacity="0" stroke="#000000" stroke-width="2" stroke-opacity="1"></use></g></g></g><g><g><use xlink:href="#a2r1ikccGR" opacity="1" fill="#000000" fill-opacity="1"></use></g><g><g><use xlink:href="#dVZBXIm0s" opacity="1" fill-opacity="0" stroke="#000000" stroke-width="2" stroke-opacity="1"></use></g></g></g></g><g><g><g><use xlink:href="#a2Lyl8W2fe" opacity="1" fill="#000000" fill-opacity="1"></use></g><g><g><use xlink:href="#bkkfuHp4Z" opacity="1" fill-opacity="0" stroke="#000000" stroke-width="2" stroke-opacity="1"></use></g></g></g><g><g><use xlink:href="#b5Anyk8TB" opacity="1" fill="#000000" fill-opacity="1"></use></g><g><g><use xlink:href="#c320OF22Es" opacity="1" fill-opacity="0" stroke="#000000" stroke-width="2" stroke-opacity="1"></use></g></g></g></g></g></g></g><g><use xlink:href="#dDto2vbZ9" opacity="1" fill="#090909" fill-opacity="1"></use></g><g><use xlink:href="#bjJwVUEi1" opacity="1" fill="#090909" fill-opacity="1"></use></g><g><use xlink:href="#aDwYZ6Ltf" opacity="1" fill="#090909" fill-opacity="1"></use></g><g><use xlink:href="#c23znnxczi" opacity="1" fill="#090909" fill-opacity="1"></use></g></g></g></g></svg>