<?xml version="1.0" encoding="UTF-8" standalone="no"?>
<!DOCTYPE svg PUBLIC "-//W3C//DTD SVG 1.1//EN" "http://www.w3.org/Graphics/SVG/1.1/DTD/svg11.dtd">
<svg version="1.1" xmlns="http://www.w3.org/2000/svg" xmlns:xlink="http://www.w3.org/1999/xlink" preserveAspectRatio="xMidYMid meet" viewBox="0 0 60 60" width="60" height="60"><defs><path d="M42.7 18.56L41.29 17.14L36.34 22.09L37.75 23.51L42.7 18.56Z" id="c1LVriugF"></path><path d="M56.83 15.43L41.88 17.97L44.41 3.02" id="cl5oGwU9l"></path><path d="M16.96 41.47L18.38 42.88L23.33 37.93L21.91 36.52L16.96 41.47Z" id="afJb52iuw"></path><path d="M2.83 44.6L17.78 42.06L15.25 57.01" id="a4jRCIH41"></path><path d="M30.3 12.8L28.3 12.8L28.3 19.8L30.3 19.8L30.3 12.8Z" id="c6oFMEdC2"></path><path d="M38.08 0.6L29.3 12.97L20.53 0.6" id="byvYM9hLm"></path><path d="M28.3 47.2L30.3 47.2L30.3 40.2L28.3 40.2L28.3 47.2Z" id="dCufr4idu"></path><path d="M20.53 59.4L29.3 47.03L38.08 59.4" id="bbpObvsdh"></path><path d="M47.2 30.4L47.2 28.4L40.2 28.4L40.2 30.4L47.2 30.4Z" id="a1XltGxyHY"></path><path d="M59.4 38.18L47.03 29.4L59.4 20.63" id="b18s0IvAI"></path><path d="M12.8 28.4L12.8 30.4L19.8 30.4L19.8 28.4L12.8 28.4Z" id="fby1r3Fq"></path><path d="M0.6 20.63L12.97 29.4L0.6 38.18" id="b1bTr5v2Qi"></path><path d="M40.76 42.87L42.17 41.45L37.22 36.51L35.81 37.92L40.76 42.87Z" id="b3lLG4KZUa"></path><path d="M43.89 57L41.35 42.05L56.3 44.58" id="bgesOFtgh"></path><path d="M17.85 17.13L16.43 18.55L21.38 23.49L22.8 22.08L17.85 17.13Z" id="a2p0pk4JKR"></path><path d="M14.72 3L17.26 17.95L2.31 15.42" id="c2YSnoaSA"></path><path d="M28.3 18.85L30.3 18.85L30.3 40.4L28.3 40.4L28.3 18.85Z" id="cqJWa5Tz0"></path><path d="M36.91 21.49L38.32 22.9L23.09 38.14L21.68 36.72L36.91 21.49Z" id="a7UMgragC"></path><path d="M37.47 36.72L36.06 38.14L20.82 22.9L22.24 21.49L37.47 36.72Z" id="cIBBEhNNS"></path><path d="M18.94 30.38L18.94 28.38L40.48 28.38L40.48 30.38L18.94 30.38Z" id="a1a59t2tf"></path></defs><g><g><g><g><use xlink:href="#c1LVriugF" opacity="1" fill-opacity="0" stroke="#ffffff" stroke-width="1" stroke-opacity="1"></use></g></g><g><g><use xlink:href="#cl5oGwU9l" opacity="1" fill-opacity="0" stroke="#ffffff" stroke-width="2" stroke-opacity="1"></use></g></g><g><g><g><use xlink:href="#afJb52iuw" opacity="1" fill-opacity="0" stroke="#ffffff" stroke-width="1" stroke-opacity="1"></use></g></g><g><g><use xlink:href="#a4jRCIH41" opacity="1" fill-opacity="0" stroke="#ffffff" stroke-width="2" stroke-opacity="1"></use></g></g></g><g><g><g><use xlink:href="#c6oFMEdC2" opacity="1" fill-opacity="0" stroke="#ffffff" stroke-width="1" stroke-opacity="1"></use></g></g><g><g><use xlink:href="#byvYM9hLm" opacity="1" fill-opacity="0" stroke="#ffffff" stroke-width="2" stroke-opacity="1"></use></g></g></g><g><g><g><use xlink:href="#dCufr4idu" opacity="1" fill-opacity="0" stroke="#ffffff" stroke-width="1" stroke-opacity="1"></use></g></g><g><g><use xlink:href="#bbpObvsdh" opacity="1" fill-opacity="0" stroke="#ffffff" stroke-width="2" stroke-opacity="1"></use></g></g></g><g><g><g><use xlink:href="#a1XltGxyHY" opacity="1" fill-opacity="0" stroke="#ffffff" stroke-width="1" stroke-opacity="1"></use></g></g><g><g><use xlink:href="#b18s0IvAI" opacity="1" fill-opacity="0" stroke="#ffffff" stroke-width="2" stroke-opacity="1"></use></g></g></g><g><g><g><use xlink:href="#fby1r3Fq" opacity="1" fill-opacity="0" stroke="#ffffff" stroke-width="1" stroke-opacity="1"></use></g></g><g><g><use xlink:href="#b1bTr5v2Qi" opacity="1" fill-opacity="0" stroke="#ffffff" stroke-width="2" stroke-opacity="1"></use></g></g></g><g><g><g><use xlink:href="#b3lLG4KZUa" opacity="1" fill-opacity="0" stroke="#ffffff" stroke-width="1" stroke-opacity="1"></use></g></g><g><g><use xlink:href="#bgesOFtgh" opacity="1" fill-opacity="0" stroke="#ffffff" stroke-width="2" stroke-opacity="1"></use></g></g></g><g><g><use xlink:href="#a2p0pk4JKR" opacity="1" fill-opacity="0" stroke="#ffffff" stroke-width="1" stroke-opacity="1"></use></g></g><g><g><use xlink:href="#c2YSnoaSA" opacity="1" fill-opacity="0" stroke="#ffffff" stroke-width="2" stroke-opacity="1"></use></g></g><g><g><use xlink:href="#cqJWa5Tz0" opacity="1" fill-opacity="0" stroke="#ffffff" stroke-width="2" stroke-opacity="1"></use></g></g><g><g><use xlink:href="#a7UMgragC" opacity="1" fill-opacity="0" stroke="#ffffff" stroke-width="2" stroke-opacity="1"></use></g></g><g><g><use xlink:href="#cIBBEhNNS" opacity="1" fill-opacity="0" stroke="#ffffff" stroke-width="2" stroke-opacity="1"></use></g></g><g><g><use xlink:href="#a1a59t2tf" opacity="1" fill-opacity="0" stroke="#ffffff" stroke-width="2" stroke-opacity="1"></use></g></g></g></g></svg>