<?xml version="1.0" encoding="UTF-8" standalone="no"?>
<!DOCTYPE svg PUBLIC "-//W3C//DTD SVG 1.1//EN" "http://www.w3.org/Graphics/SVG/1.1/DTD/svg11.dtd">
<svg version="1.1" xmlns="http://www.w3.org/2000/svg" xmlns:xlink="http://www.w3.org/1999/xlink" preserveAspectRatio="xMidYMid meet" viewBox="0 0 60 60" width="60" height="60"><defs><path d="M42.7 18.56L41.29 17.14L36.34 22.09L37.75 23.51L42.7 18.56Z" id="c1f1sIjDwE"></path><path d="M16.96 41.47L18.38 42.88L23.33 37.93L21.91 36.52L16.96 41.47Z" id="a2piVp74F1"></path><path d="M30.3 12.8L28.3 12.8L28.3 19.8L30.3 19.8L30.3 12.8Z" id="h4rlrusSIw"></path><path d="M28.3 47.2L30.3 47.2L30.3 40.2L28.3 40.2L28.3 47.2Z" id="a77bzaCF8"></path><path d="M47.2 30.4L47.2 28.4L40.2 28.4L40.2 30.4L47.2 30.4Z" id="au1ycxupr"></path><path d="M12.8 28.4L12.8 30.4L19.8 30.4L19.8 28.4L12.8 28.4Z" id="c4tjEHJTb"></path><path d="M40.76 42.87L42.17 41.45L37.22 36.51L35.81 37.92L40.76 42.87Z" id="ag5BHIdhf"></path><path d="M17.85 17.13L16.43 18.55L21.38 23.49L22.8 22.08L17.85 17.13Z" id="e3IieqIVa0"></path><path d="M28.3 18.85L30.3 18.85L30.3 40.4L28.3 40.4L28.3 18.85Z" id="cyju5bqR6"></path><path d="M36.91 21.49L38.32 22.9L23.09 38.14L21.68 36.72L36.91 21.49Z" id="c8o6acUyyG"></path><path d="M37.47 36.72L36.06 38.14L20.82 22.9L22.24 21.49L37.47 36.72Z" id="b6DhcM45Mg"></path><path d="M18.94 30.38L18.94 28.38L40.48 28.38L40.48 30.38L18.94 30.38Z" id="c1ShpTkO45"></path></defs><g><g><g><g><use xlink:href="#c1f1sIjDwE" opacity="1" fill="#ffffff" fill-opacity="1"></use><g><use xlink:href="#c1f1sIjDwE" opacity="1" fill-opacity="0" stroke="#000000" stroke-width="1" stroke-opacity="1"></use></g></g><g><use xlink:href="#a2piVp74F1" opacity="1" fill="#ffffff" fill-opacity="1"></use><g><use xlink:href="#a2piVp74F1" opacity="1" fill-opacity="0" stroke="#000000" stroke-width="1" stroke-opacity="1"></use></g></g><g><use xlink:href="#h4rlrusSIw" opacity="1" fill="#ffffff" fill-opacity="1"></use><g><use xlink:href="#h4rlrusSIw" opacity="1" fill-opacity="0" stroke="#000000" stroke-width="1" stroke-opacity="1"></use></g></g><g><use xlink:href="#a77bzaCF8" opacity="1" fill="#ffffff" fill-opacity="1"></use><g><use xlink:href="#a77bzaCF8" opacity="1" fill-opacity="0" stroke="#000000" stroke-width="1" stroke-opacity="1"></use></g></g><g><use xlink:href="#au1ycxupr" opacity="1" fill="#ffffff" fill-opacity="1"></use><g><use xlink:href="#au1ycxupr" opacity="1" fill-opacity="0" stroke="#000000" stroke-width="1" stroke-opacity="1"></use></g></g><g><use xlink:href="#c4tjEHJTb" opacity="1" fill="#ffffff" fill-opacity="1"></use><g><use xlink:href="#c4tjEHJTb" opacity="1" fill-opacity="0" stroke="#000000" stroke-width="1" stroke-opacity="1"></use></g></g><g><use xlink:href="#ag5BHIdhf" opacity="1" fill="#ffffff" fill-opacity="1"></use><g><use xlink:href="#ag5BHIdhf" opacity="1" fill-opacity="0" stroke="#000000" stroke-width="1" stroke-opacity="1"></use></g></g><g><use xlink:href="#e3IieqIVa0" opacity="1" fill="#ffffff" fill-opacity="1"></use><g><use xlink:href="#e3IieqIVa0" opacity="1" fill-opacity="0" stroke="#000000" stroke-width="1" stroke-opacity="1"></use></g></g><g><use xlink:href="#cyju5bqR6" opacity="1" fill="#ffffff" fill-opacity="1"></use><g><use xlink:href="#cyju5bqR6" opacity="1" fill-opacity="0" stroke="#000000" stroke-width="2" stroke-opacity="1"></use></g></g><g><use xlink:href="#c8o6acUyyG" opacity="1" fill="#ffffff" fill-opacity="1"></use><g><use xlink:href="#c8o6acUyyG" opacity="1" fill-opacity="0" stroke="#000000" stroke-width="2" stroke-opacity="1"></use></g></g><g><use xlink:href="#b6DhcM45Mg" opacity="1" fill="#ffffff" fill-opacity="1"></use><g><use xlink:href="#b6DhcM45Mg" opacity="1" fill-opacity="0" stroke="#000000" stroke-width="2" stroke-opacity="1"></use></g></g><g><use xlink:href="#c1ShpTkO45" opacity="1" fill="#ffffff" fill-opacity="1"></use><g><use xlink:href="#c1ShpTkO45" opacity="1" fill-opacity="0" stroke="#000000" stroke-width="2" stroke-opacity="1"></use></g></g></g></g></g></svg>