<?xml version="1.0" encoding="UTF-8" standalone="no"?>
<!DOCTYPE svg PUBLIC "-//W3C//DTD SVG 1.1//EN" "http://www.w3.org/Graphics/SVG/1.1/DTD/svg11.dtd">
<svg version="1.1" xmlns="http://www.w3.org/2000/svg" xmlns:xlink="http://www.w3.org/1999/xlink" preserveAspectRatio="xMidYMid meet" viewBox="0 0 60 60" width="60" height="60"><defs><path d="M69.1 106.36L67.69 104.94L62.74 109.89L64.15 111.31L69.1 106.36Z" id="eCmDNyan6"></path><path d="M43.36 129.27L44.78 130.68L49.73 125.73L48.31 124.32L43.36 129.27Z" id="a3gjYvewP5"></path><path d="M56.7 100.6L54.7 100.6L54.7 107.6L56.7 107.6L56.7 100.6Z" id="b5ZhxjSO3G"></path><path d="M54.7 135L56.7 135L56.7 128L54.7 128L54.7 135Z" id="bzam4pqjW"></path><path d="M73.6 118.2L73.6 116.2L66.6 116.2L66.6 118.2L73.6 118.2Z" id="ckM2jc5MS"></path><path d="M39.2 116.2L39.2 118.2L46.2 118.2L46.2 116.2L39.2 116.2Z" id="a79oh7m3z"></path><path d="M67.16 130.67L68.57 129.25L63.62 124.31L62.21 125.72L67.16 130.67Z" id="e4KLxWvoGQ"></path><path d="M44.25 104.93L42.83 106.35L47.78 111.29L49.2 109.88L44.25 104.93Z" id="c6SQZelWb"></path><path d="M43.1 18.96L41.69 17.54L36.74 22.49L38.15 23.91L43.1 18.96Z" id="b200YMmJgb"></path><path d="M57.23 15.83L42.28 18.37L44.81 3.42" id="aKsjGY4Le"></path><path d="M17.36 41.87L18.78 43.28L23.73 38.33L22.31 36.92L17.36 41.87Z" id="cCPSCk94m"></path><path d="M3.23 45L18.18 42.46L15.65 57.41" id="g4koRpB8aB"></path><path d="M30.7 13.2L28.7 13.2L28.7 20.2L30.7 20.2L30.7 13.2Z" id="gZatwBe85"></path><path d="M38.48 1L29.7 13.37L20.93 1" id="cMDWRvRK"></path><path d="M28.7 47.6L30.7 47.6L30.7 40.6L28.7 40.6L28.7 47.6Z" id="a1RDHY9LtH"></path><path d="M20.93 59.8L29.7 47.43L38.48 59.8" id="a278ANarB"></path><path d="M47.6 30.8L47.6 28.8L40.6 28.8L40.6 30.8L47.6 30.8Z" id="c59X0yGq0n"></path><path d="M59.8 38.58L47.43 29.8L59.8 21.02" id="bGBGOITWp"></path><path d="M13.2 28.8L13.2 30.8L20.2 30.8L20.2 28.8L13.2 28.8Z" id="e1PP3xIJ5w"></path><path d="M1 21.02L13.37 29.8L1 38.58" id="bT7OhNiGR"></path><path d="M41.16 43.27L42.57 41.85L37.62 36.91L36.21 38.32L41.16 43.27Z" id="b1iENdaNg7"></path><path d="M44.29 57.4L41.75 42.45L56.7 44.98" id="aWWbowGI"></path><path d="M18.25 17.53L16.83 18.95L21.78 23.89L23.2 22.48L18.25 17.53Z" id="jbBXbh8PK"></path><path d="M15.12 3.4L17.66 18.35L2.71 15.82" id="h7tSgiSL"></path><path d="M28.7 19.25L30.7 19.25L30.7 40.8L28.7 40.8L28.7 19.25Z" id="a25m1te4r"></path><path d="M37.31 21.89L38.72 23.3L23.49 38.54L22.08 37.12L37.31 21.89Z" id="c1hiN8Jbf4"></path><path d="M37.87 37.12L36.46 38.54L21.22 23.3L22.64 21.89L37.87 37.12Z" id="cdoCTFkjR"></path><path d="M19.34 30.78L19.34 28.78L40.88 28.78L40.88 30.78L19.34 30.78Z" id="aaQXToGcE"></path></defs><g><g><g><use xlink:href="#eCmDNyan6" opacity="1" fill="#ffffff" fill-opacity="1"></use><g><use xlink:href="#eCmDNyan6" opacity="1" fill-opacity="0" stroke="#ffffff" stroke-width="1" stroke-opacity="1"></use></g></g><g><use xlink:href="#a3gjYvewP5" opacity="1" fill="#ffffff" fill-opacity="1"></use><g><use xlink:href="#a3gjYvewP5" opacity="1" fill-opacity="0" stroke="#ffffff" stroke-width="1" stroke-opacity="1"></use></g></g><g><use xlink:href="#b5ZhxjSO3G" opacity="1" fill="#ffffff" fill-opacity="1"></use><g><use xlink:href="#b5ZhxjSO3G" opacity="1" fill-opacity="0" stroke="#ffffff" stroke-width="1" stroke-opacity="1"></use></g></g><g><use xlink:href="#bzam4pqjW" opacity="1" fill="#ffffff" fill-opacity="1"></use><g><use xlink:href="#bzam4pqjW" opacity="1" fill-opacity="0" stroke="#ffffff" stroke-width="1" stroke-opacity="1"></use></g></g><g><use xlink:href="#ckM2jc5MS" opacity="1" fill="#ffffff" fill-opacity="1"></use><g><use xlink:href="#ckM2jc5MS" opacity="1" fill-opacity="0" stroke="#ffffff" stroke-width="1" stroke-opacity="1"></use></g></g><g><use xlink:href="#a79oh7m3z" opacity="1" fill="#ffffff" fill-opacity="1"></use><g><use xlink:href="#a79oh7m3z" opacity="1" fill-opacity="0" stroke="#ffffff" stroke-width="1" stroke-opacity="1"></use></g></g><g><use xlink:href="#e4KLxWvoGQ" opacity="1" fill="#ffffff" fill-opacity="1"></use><g><use xlink:href="#e4KLxWvoGQ" opacity="1" fill-opacity="0" stroke="#ffffff" stroke-width="1" stroke-opacity="1"></use></g></g><g><use xlink:href="#c6SQZelWb" opacity="1" fill="#ffffff" fill-opacity="1"></use><g><use xlink:href="#c6SQZelWb" opacity="1" fill-opacity="0" stroke="#ffffff" stroke-width="1" stroke-opacity="1"></use></g></g><g><g><g><g><use xlink:href="#b200YMmJgb" opacity="1" fill="#d7d6d6" fill-opacity="1"></use><g><use xlink:href="#b200YMmJgb" opacity="1" fill-opacity="0" stroke="#000000" stroke-width="1" stroke-opacity="1"></use></g></g><g><use xlink:href="#aKsjGY4Le" opacity="1" fill="#d7d6d6" fill-opacity="1"></use><g><use xlink:href="#aKsjGY4Le" opacity="1" fill-opacity="0" stroke="#000000" stroke-width="2" stroke-opacity="1"></use></g></g></g><g><g><use xlink:href="#cCPSCk94m" opacity="1" fill="#d7d6d6" fill-opacity="1"></use><g><use xlink:href="#cCPSCk94m" opacity="1" fill-opacity="0" stroke="#000000" stroke-width="1" stroke-opacity="1"></use></g></g><g><use xlink:href="#g4koRpB8aB" opacity="1" fill="#d7d6d6" fill-opacity="1"></use><g><use xlink:href="#g4koRpB8aB" opacity="1" fill-opacity="0" stroke="#000000" stroke-width="2" stroke-opacity="1"></use></g></g></g></g><g><g><g><g><use xlink:href="#gZatwBe85" opacity="1" fill="#d7d6d6" fill-opacity="1"></use><g><use xlink:href="#gZatwBe85" opacity="1" fill-opacity="0" stroke="#000000" stroke-width="1" stroke-opacity="1"></use></g></g><g><use xlink:href="#cMDWRvRK" opacity="1" fill="#d7d6d6" fill-opacity="1"></use><g><use xlink:href="#cMDWRvRK" opacity="1" fill-opacity="0" stroke="#000000" stroke-width="2" stroke-opacity="1"></use></g></g></g><g><g><use xlink:href="#a1RDHY9LtH" opacity="1" fill="#d7d6d6" fill-opacity="1"></use><g><use xlink:href="#a1RDHY9LtH" opacity="1" fill-opacity="0" stroke="#000000" stroke-width="1" stroke-opacity="1"></use></g></g><g><use xlink:href="#a278ANarB" opacity="1" fill="#d7d6d6" fill-opacity="1"></use><g><use xlink:href="#a278ANarB" opacity="1" fill-opacity="0" stroke="#000000" stroke-width="2" stroke-opacity="1"></use></g></g></g></g><g><g><g><g><use xlink:href="#c59X0yGq0n" opacity="1" fill="#d7d6d6" fill-opacity="1"></use><g><use xlink:href="#c59X0yGq0n" opacity="1" fill-opacity="0" stroke="#000000" stroke-width="1" stroke-opacity="1"></use></g></g><g><use xlink:href="#bGBGOITWp" opacity="1" fill="#d7d6d6" fill-opacity="1"></use><g><use xlink:href="#bGBGOITWp" opacity="1" fill-opacity="0" stroke="#000000" stroke-width="2" stroke-opacity="1"></use></g></g></g><g><g><use xlink:href="#e1PP3xIJ5w" opacity="1" fill="#d7d6d6" fill-opacity="1"></use><g><use xlink:href="#e1PP3xIJ5w" opacity="1" fill-opacity="0" stroke="#000000" stroke-width="1" stroke-opacity="1"></use></g></g><g><use xlink:href="#bT7OhNiGR" opacity="1" fill="#d7d6d6" fill-opacity="1"></use><g><use xlink:href="#bT7OhNiGR" opacity="1" fill-opacity="0" stroke="#000000" stroke-width="2" stroke-opacity="1"></use></g></g></g></g><g><g><g><use xlink:href="#b1iENdaNg7" opacity="1" fill="#d7d6d6" fill-opacity="1"></use><g><use xlink:href="#b1iENdaNg7" opacity="1" fill-opacity="0" stroke="#000000" stroke-width="1" stroke-opacity="1"></use></g></g><g><use xlink:href="#aWWbowGI" opacity="1" fill="#d7d6d6" fill-opacity="1"></use><g><use xlink:href="#aWWbowGI" opacity="1" fill-opacity="0" stroke="#000000" stroke-width="2" stroke-opacity="1"></use></g></g></g><g><g><use xlink:href="#jbBXbh8PK" opacity="1" fill="#d7d6d6" fill-opacity="1"></use><g><use xlink:href="#jbBXbh8PK" opacity="1" fill-opacity="0" stroke="#000000" stroke-width="1" stroke-opacity="1"></use></g></g><g><use xlink:href="#h7tSgiSL" opacity="1" fill="#d7d6d6" fill-opacity="1"></use><g><use xlink:href="#h7tSgiSL" opacity="1" fill-opacity="0" stroke="#000000" stroke-width="2" stroke-opacity="1"></use></g></g></g></g></g></g></g><g><use xlink:href="#a25m1te4r" opacity="1" fill="#d7d6d6" fill-opacity="1"></use><g><use xlink:href="#a25m1te4r" opacity="1" fill-opacity="0" stroke="#ffffff" stroke-width="2" stroke-opacity="1"></use></g></g><g><use xlink:href="#c1hiN8Jbf4" opacity="1" fill="#d7d6d6" fill-opacity="1"></use><g><use xlink:href="#c1hiN8Jbf4" opacity="1" fill-opacity="0" stroke="#ffffff" stroke-width="2" stroke-opacity="1"></use></g></g><g><use xlink:href="#cdoCTFkjR" opacity="1" fill="#d7d6d6" fill-opacity="1"></use><g><use xlink:href="#cdoCTFkjR" opacity="1" fill-opacity="0" stroke="#ffffff" stroke-width="2" stroke-opacity="1"></use></g></g><g><use xlink:href="#aaQXToGcE" opacity="1" fill="#d7d6d6" fill-opacity="1"></use><g><use xlink:href="#aaQXToGcE" opacity="1" fill-opacity="0" stroke="#ffffff" stroke-width="2" stroke-opacity="1"></use></g></g></g></g></svg>