<?xml version="1.0" encoding="UTF-8" standalone="no"?>
<!DOCTYPE svg PUBLIC "-//W3C//DTD SVG 1.1//EN" "http://www.w3.org/Graphics/SVG/1.1/DTD/svg11.dtd">
<svg version="1.1" xmlns="http://www.w3.org/2000/svg" xmlns:xlink="http://www.w3.org/1999/xlink" preserveAspectRatio="xMidYMid meet" viewBox="0 0 60 60" width="60" height="60"><defs><path d="M42.7 18.56L41.29 17.14L36.34 22.09L37.75 23.51L42.7 18.56Z" id="b1Q1J7jOfX"></path><path d="M56.83 15.43L41.88 17.97L44.41 3.02" id="kz14QoqSg"></path><path d="M16.96 41.47L18.38 42.88L23.33 37.93L21.91 36.52L16.96 41.47Z" id="c1v6YbCq1H"></path><path d="M2.83 44.6L17.78 42.06L15.25 57.01" id="a48G6HdVcq"></path><path d="M30.3 12.8L28.3 12.8L28.3 19.8L30.3 19.8L30.3 12.8Z" id="dNsFDB7Gg"></path><path d="M38.08 0.6L29.3 12.97L20.53 0.6" id="i185isfSwd"></path><path d="M28.3 47.2L30.3 47.2L30.3 40.2L28.3 40.2L28.3 47.2Z" id="el6wDNaZq"></path><path d="M20.53 59.4L29.3 47.03L38.08 59.4" id="nJAOThT58"></path><path d="M47.2 30.4L47.2 28.4L40.2 28.4L40.2 30.4L47.2 30.4Z" id="d158WJ1Br"></path><path d="M59.4 38.18L47.03 29.4L59.4 20.63" id="a3h9M9taZE"></path><path d="M12.8 28.4L12.8 30.4L19.8 30.4L19.8 28.4L12.8 28.4Z" id="a2pZEPV1pS"></path><path d="M0.6 20.63L12.97 29.4L0.6 38.18" id="d3Fxf46ZDp"></path><path d="M40.76 42.87L42.17 41.45L37.22 36.51L35.81 37.92L40.76 42.87Z" id="e1ZADYP5d"></path><path d="M43.89 57L41.35 42.05L56.3 44.58" id="c1DYgP1Flt"></path><path d="M17.85 17.13L16.43 18.55L21.38 23.49L22.8 22.08L17.85 17.13Z" id="b83iYWCnsX"></path><path d="M14.72 3L17.26 17.95L2.31 15.42" id="a2uqpjPmFP"></path><path d="M28.3 18.85L30.3 18.85L30.3 40.4L28.3 40.4L28.3 18.85Z" id="a4WJqzyXOh"></path><path d="M36.91 21.49L38.32 22.9L23.09 38.14L21.68 36.72L36.91 21.49Z" id="c18jj8GMcX"></path><path d="M37.47 36.72L36.06 38.14L20.82 22.9L22.24 21.49L37.47 36.72Z" id="fmckEVrpT"></path><path d="M18.94 30.38L18.94 28.38L40.48 28.38L40.48 30.38L18.94 30.38Z" id="a8uv6zQoe"></path></defs><g><g><g><g><g><g><g><use xlink:href="#b1Q1J7jOfX" opacity="1" fill="#ffffff" fill-opacity="1"></use><g><use xlink:href="#b1Q1J7jOfX" opacity="1" fill-opacity="0" stroke="#000000" stroke-width="1" stroke-opacity="1"></use></g></g><g><use xlink:href="#kz14QoqSg" opacity="1" fill="#ffffff" fill-opacity="1"></use><g><use xlink:href="#kz14QoqSg" opacity="1" fill-opacity="0" stroke="#000000" stroke-width="2" stroke-opacity="1"></use></g></g></g><g><g><use xlink:href="#c1v6YbCq1H" opacity="1" fill="#ffffff" fill-opacity="1"></use><g><use xlink:href="#c1v6YbCq1H" opacity="1" fill-opacity="0" stroke="#000000" stroke-width="1" stroke-opacity="1"></use></g></g><g><use xlink:href="#a48G6HdVcq" opacity="1" fill="#ffffff" fill-opacity="1"></use><g><use xlink:href="#a48G6HdVcq" opacity="1" fill-opacity="0" stroke="#000000" stroke-width="2" stroke-opacity="1"></use></g></g></g></g><g><g><g><g><use xlink:href="#dNsFDB7Gg" opacity="1" fill="#ffffff" fill-opacity="1"></use><g><use xlink:href="#dNsFDB7Gg" opacity="1" fill-opacity="0" stroke="#000000" stroke-width="1" stroke-opacity="1"></use></g></g><g><use xlink:href="#i185isfSwd" opacity="1" fill="#ffffff" fill-opacity="1"></use><g><use xlink:href="#i185isfSwd" opacity="1" fill-opacity="0" stroke="#000000" stroke-width="2" stroke-opacity="1"></use></g></g></g><g><g><use xlink:href="#el6wDNaZq" opacity="1" fill="#ffffff" fill-opacity="1"></use><g><use xlink:href="#el6wDNaZq" opacity="1" fill-opacity="0" stroke="#000000" stroke-width="1" stroke-opacity="1"></use></g></g><g><use xlink:href="#nJAOThT58" opacity="1" fill="#ffffff" fill-opacity="1"></use><g><use xlink:href="#nJAOThT58" opacity="1" fill-opacity="0" stroke="#000000" stroke-width="2" stroke-opacity="1"></use></g></g></g></g><g><g><g><g><use xlink:href="#d158WJ1Br" opacity="1" fill="#ffffff" fill-opacity="1"></use><g><use xlink:href="#d158WJ1Br" opacity="1" fill-opacity="0" stroke="#000000" stroke-width="1" stroke-opacity="1"></use></g></g><g><use xlink:href="#a3h9M9taZE" opacity="1" fill="#ffffff" fill-opacity="1"></use><g><use xlink:href="#a3h9M9taZE" opacity="1" fill-opacity="0" stroke="#000000" stroke-width="2" stroke-opacity="1"></use></g></g></g><g><g><use xlink:href="#a2pZEPV1pS" opacity="1" fill="#ffffff" fill-opacity="1"></use><g><use xlink:href="#a2pZEPV1pS" opacity="1" fill-opacity="0" stroke="#000000" stroke-width="1" stroke-opacity="1"></use></g></g><g><use xlink:href="#d3Fxf46ZDp" opacity="1" fill="#ffffff" fill-opacity="1"></use><g><use xlink:href="#d3Fxf46ZDp" opacity="1" fill-opacity="0" stroke="#000000" stroke-width="2" stroke-opacity="1"></use></g></g></g></g><g><g><g><use xlink:href="#e1ZADYP5d" opacity="1" fill="#ffffff" fill-opacity="1"></use><g><use xlink:href="#e1ZADYP5d" opacity="1" fill-opacity="0" stroke="#000000" stroke-width="1" stroke-opacity="1"></use></g></g><g><use xlink:href="#c1DYgP1Flt" opacity="1" fill="#ffffff" fill-opacity="1"></use><g><use xlink:href="#c1DYgP1Flt" opacity="1" fill-opacity="0" stroke="#000000" stroke-width="2" stroke-opacity="1"></use></g></g></g><g><g><use xlink:href="#b83iYWCnsX" opacity="1" fill="#ffffff" fill-opacity="1"></use><g><use xlink:href="#b83iYWCnsX" opacity="1" fill-opacity="0" stroke="#000000" stroke-width="1" stroke-opacity="1"></use></g></g><g><use xlink:href="#a2uqpjPmFP" opacity="1" fill="#ffffff" fill-opacity="1"></use><g><use xlink:href="#a2uqpjPmFP" opacity="1" fill-opacity="0" stroke="#000000" stroke-width="2" stroke-opacity="1"></use></g></g></g></g></g></g></g><g><use xlink:href="#a4WJqzyXOh" opacity="1" fill="#ffffff" fill-opacity="1"></use><g><use xlink:href="#a4WJqzyXOh" opacity="1" fill-opacity="0" stroke="#000000" stroke-width="2" stroke-opacity="1"></use></g></g><g><use xlink:href="#c18jj8GMcX" opacity="1" fill="#ffffff" fill-opacity="1"></use><g><use xlink:href="#c18jj8GMcX" opacity="1" fill-opacity="0" stroke="#000000" stroke-width="2" stroke-opacity="1"></use></g></g><g><use xlink:href="#fmckEVrpT" opacity="1" fill="#ffffff" fill-opacity="1"></use><g><use xlink:href="#fmckEVrpT" opacity="1" fill-opacity="0" stroke="#000000" stroke-width="2" stroke-opacity="1"></use></g></g><g><use xlink:href="#a8uv6zQoe" opacity="1" fill="#ffffff" fill-opacity="1"></use><g><use xlink:href="#a8uv6zQoe" opacity="1" fill-opacity="0" stroke="#000000" stroke-width="2" stroke-opacity="1"></use></g></g></g></g></g></svg>