<?xml version="1.0" encoding="UTF-8" standalone="no"?>
<!DOCTYPE svg PUBLIC "-//W3C//DTD SVG 1.1//EN" "http://www.w3.org/Graphics/SVG/1.1/DTD/svg11.dtd">
<svg version="1.1" xmlns="http://www.w3.org/2000/svg" xmlns:xlink="http://www.w3.org/1999/xlink" preserveAspectRatio="xMidYMid meet" viewBox="0 0 60 60" width="60" height="60"><defs><path d="M42.7 18.56L41.29 17.14L36.34 22.09L37.75 23.51L42.7 18.56Z" id="amlfvNGda"></path><path d="M56.83 15.43L41.88 17.97L44.41 3.02" id="ffmDmPo4F"></path><path d="M16.96 41.47L18.38 42.88L23.33 37.93L21.91 36.52L16.96 41.47Z" id="c1mjt8l4FV"></path><path d="M2.83 44.6L17.78 42.06L15.25 57.01" id="e10VfU1vcO"></path><path d="M30.3 12.8L28.3 12.8L28.3 19.8L30.3 19.8L30.3 12.8Z" id="b3oRuCD9fN"></path><path d="M38.08 0.6L29.3 12.97L20.53 0.6" id="aQIb2j8rg"></path><path d="M28.3 47.2L30.3 47.2L30.3 40.2L28.3 40.2L28.3 47.2Z" id="b1eGZyQpXI"></path><path d="M20.53 59.4L29.3 47.03L38.08 59.4" id="c2OXkY6Rs"></path><path d="M47.2 30.4L47.2 28.4L40.2 28.4L40.2 30.4L47.2 30.4Z" id="a5PlredpYu"></path><path d="M59.4 38.18L47.03 29.4L59.4 20.63" id="a3Z3WfYoWQ"></path><path d="M12.8 28.4L12.8 30.4L19.8 30.4L19.8 28.4L12.8 28.4Z" id="d2C9BThyv"></path><path d="M0.6 20.63L12.97 29.4L0.6 38.18" id="e5siMFn3g"></path><path d="M40.76 42.87L42.17 41.45L37.22 36.51L35.81 37.92L40.76 42.87Z" id="hbYNhAxGH4"></path><path d="M43.89 57L41.35 42.05L56.3 44.58" id="b7B31LfvH"></path><path d="M17.85 17.13L16.43 18.55L21.38 23.49L22.8 22.08L17.85 17.13Z" id="bMM9H5hCw"></path><path d="M14.72 3L17.26 17.95L2.31 15.42" id="a1QmxbK6f"></path><path d="M28.3 18.85L30.3 18.85L30.3 40.4L28.3 40.4L28.3 18.85Z" id="bN1uBq4SO"></path><path d="M36.91 21.49L38.32 22.9L23.09 38.14L21.68 36.72L36.91 21.49Z" id="aMXKASGzn"></path><path d="M37.47 36.72L36.06 38.14L20.82 22.9L22.24 21.49L37.47 36.72Z" id="c2evk5yaY"></path><path d="M18.94 30.38L18.94 28.38L40.48 28.38L40.48 30.38L18.94 30.38Z" id="a1Uo6zsqhT"></path></defs><g><g><g><g><g><g><g><use xlink:href="#amlfvNGda" opacity="1" fill="#d1d1d1" fill-opacity="1"></use></g><g><use xlink:href="#ffmDmPo4F" opacity="1" fill="#d1d1d1" fill-opacity="1"></use><g><use xlink:href="#ffmDmPo4F" opacity="1" fill-opacity="0" stroke="#ffffff" stroke-width="2" stroke-opacity="1"></use></g></g></g><g><g><use xlink:href="#c1mjt8l4FV" opacity="1" fill="#d1d1d1" fill-opacity="1"></use></g><g><use xlink:href="#e10VfU1vcO" opacity="1" fill="#d1d1d1" fill-opacity="1"></use><g><use xlink:href="#e10VfU1vcO" opacity="1" fill-opacity="0" stroke="#ffffff" stroke-width="2" stroke-opacity="1"></use></g></g></g></g><g><g><g><g><use xlink:href="#b3oRuCD9fN" opacity="1" fill="#d1d1d1" fill-opacity="1"></use></g><g><use xlink:href="#aQIb2j8rg" opacity="1" fill="#d1d1d1" fill-opacity="1"></use><g><use xlink:href="#aQIb2j8rg" opacity="1" fill-opacity="0" stroke="#ffffff" stroke-width="2" stroke-opacity="1"></use></g></g></g><g><g><use xlink:href="#b1eGZyQpXI" opacity="1" fill="#d1d1d1" fill-opacity="1"></use></g><g><use xlink:href="#c2OXkY6Rs" opacity="1" fill="#d1d1d1" fill-opacity="1"></use><g><use xlink:href="#c2OXkY6Rs" opacity="1" fill-opacity="0" stroke="#ffffff" stroke-width="2" stroke-opacity="1"></use></g></g></g></g><g><g><g><g><use xlink:href="#a5PlredpYu" opacity="1" fill="#d1d1d1" fill-opacity="1"></use></g><g><use xlink:href="#a3Z3WfYoWQ" opacity="1" fill="#d1d1d1" fill-opacity="1"></use><g><use xlink:href="#a3Z3WfYoWQ" opacity="1" fill-opacity="0" stroke="#ffffff" stroke-width="2" stroke-opacity="1"></use></g></g></g><g><g><use xlink:href="#d2C9BThyv" opacity="1" fill="#d1d1d1" fill-opacity="1"></use></g><g><use xlink:href="#e5siMFn3g" opacity="1" fill="#d1d1d1" fill-opacity="1"></use><g><use xlink:href="#e5siMFn3g" opacity="1" fill-opacity="0" stroke="#ffffff" stroke-width="2" stroke-opacity="1"></use></g></g></g></g><g><g><g><use xlink:href="#hbYNhAxGH4" opacity="1" fill="#d1d1d1" fill-opacity="1"></use></g><g><use xlink:href="#b7B31LfvH" opacity="1" fill="#d1d1d1" fill-opacity="1"></use><g><use xlink:href="#b7B31LfvH" opacity="1" fill-opacity="0" stroke="#ffffff" stroke-width="2" stroke-opacity="1"></use></g></g></g><g><g><use xlink:href="#bMM9H5hCw" opacity="1" fill="#d1d1d1" fill-opacity="1"></use></g><g><use xlink:href="#a1QmxbK6f" opacity="1" fill="#d1d1d1" fill-opacity="1"></use><g><use xlink:href="#a1QmxbK6f" opacity="1" fill-opacity="0" stroke="#ffffff" stroke-width="2" stroke-opacity="1"></use></g></g></g></g></g></g></g><g><use xlink:href="#bN1uBq4SO" opacity="1" fill="#d1d1d1" fill-opacity="1"></use></g><g><use xlink:href="#aMXKASGzn" opacity="1" fill="#d1d1d1" fill-opacity="1"></use></g><g><use xlink:href="#c2evk5yaY" opacity="1" fill="#d1d1d1" fill-opacity="1"></use></g><g><use xlink:href="#a1Uo6zsqhT" opacity="1" fill="#d1d1d1" fill-opacity="1"></use></g></g></g></g></svg>